<svg width="25" height="25" viewBox="0 0 25 25" fill="none" xmlns="http://www.w3.org/2000/svg">
<path d="M4.86219 18.341L21.1247 18.2798C21.6547 18.2778 22.0826 17.8377 22.0806 17.2968L22.0802 17.1937C22.0782 16.6529 21.6469 16.216 21.1169 16.218L4.85443 16.2792C4.32446 16.2812 3.89649 16.7213 3.89853 17.2622L3.89891 17.3653C3.90095 17.9062 4.33222 18.343 4.86219 18.341Z" fill="black"/>
<path d="M12.8987 13.2799L21.5721 13.2472C21.8547 13.2462 22.0822 12.8068 22.0802 12.2659L22.0798 12.1628C22.0778 11.6219 21.847 11.1843 21.5643 11.1854L12.891 11.218C12.6083 11.2191 12.3809 11.6584 12.3829 12.1993L12.3833 12.3024C12.3853 12.8433 12.6161 13.2809 12.8987 13.2799Z" fill="black"/>
<path d="M4.8614 8.27924L21.1239 8.21803C21.6539 8.21603 22.0818 7.77593 22.0798 7.23504L22.0794 7.13195C22.0774 6.59106 21.6461 6.15419 21.1161 6.15619L4.85364 6.21739C4.32367 6.21939 3.8957 6.65949 3.89773 7.20038L3.89812 7.30347C3.90016 7.84437 4.33143 8.28123 4.8614 8.27924Z" fill="black"/>
</svg>
